<svg width="222" height="188" viewBox="0 0 222 188" fill="none" xmlns="http://www.w3.org/2000/svg">
<g clip-path="url(#clip0_1_167)">
<path d="M167.197 112.068C172.744 107.989 181.85 111.003 181.85 120.816C184.517 115.309 196.17 116.643 195.57 125.869C199.184 123.483 204.17 125.643 204.01 130.749C208.904 128.123 217.89 133.523 215.932 141.495C213.277 140.629 210.144 141.083 207.57 143.203C206.01 137.136 199.61 135.256 194.01 135.643C189.652 135.948 185.957 139.243 184.557 142.696C182.117 141.161 178.904 140.828 175.344 141.643C169.237 143.029 165.677 146.816 164.904 152.083C162.17 146.976 154.677 149.136 153.784 153.869C151.85 146.976 145.01 144.976 140.344 145.483C136.33 145.909 131.184 148.149 129.664 154.029C126.344 150.841 120.97 148.495 115.117 148.976C110.717 149.336 106.637 151.603 104.144 154.948C103.477 149.068 92.0903 146.856 87.8236 152.376C85.7703 149.976 82.3036 148.123 78.517 147.803C74.7303 147.495 69.6636 148.469 66.7436 151.923C65.917 146.443 58.3969 143.068 53.1703 145.068C51.5303 138.828 39.1303 134.309 33.3436 144.536C32.677 138.309 27.7836 135.869 23.3436 135.869C16.6636 135.869 13.117 140.976 12.9036 144.083C11.3036 143.189 9.51696 142.976 7.81029 143.309C5.65163 135.429 14.9436 129.388 20.237 132.976C18.9036 124.976 28.677 121.643 33.1836 126.976C31.357 119.816 38.8236 114.763 44.6236 116.896C46.6516 109.495 59.0503 105.161 65.3436 113.416C66.237 108.083 71.437 104.589 77.8503 105.483C80.837 105.896 83.1836 107.388 84.6903 109.256C86.9036 103.229 96.265 101.963 99.3436 107.309C101.277 96.5493 119.637 91.6146 127.01 103.003C129.464 101.763 132.53 101.401 136.01 102.309C141.57 103.763 144.517 108.469 144.904 112.083C148.29 102.309 164.144 104.083 167.184 112.068H167.197Z" fill="#D87639"/>
<path d="M33.344 144.536C39.1307 134.309 51.5307 138.828 53.1707 145.068C58.3974 143.068 65.9174 146.443 66.744 151.923C69.664 148.469 74.7307 147.495 78.5174 147.803C82.304 148.123 85.7707 149.976 87.824 152.376C92.0907 146.856 103.477 149.068 104.144 154.948C106.637 151.603 110.717 149.336 115.117 148.976C120.971 148.495 126.344 150.841 129.664 154.029C131.184 148.149 136.331 145.909 140.344 145.483C145.011 144.976 151.851 146.976 153.784 153.869C154.677 149.136 162.171 146.976 164.904 152.083C165.677 146.816 169.237 143.029 175.344 141.643C178.904 140.828 182.117 141.161 184.557 142.696C185.892 139.404 189.321 136.287 193.415 135.735C190.04 132.469 183.727 132.94 181.851 136.816C181.851 127.003 172.744 123.989 167.197 128.068H167.184C164.144 120.083 148.291 118.309 144.904 128.083C144.517 124.469 141.571 119.763 136.011 118.309C132.531 117.401 129.464 117.763 127.011 119.003C119.637 107.615 101.277 112.549 99.344 123.309C96.2654 117.963 86.904 119.229 84.6907 125.256C83.184 123.388 80.8374 121.896 77.8507 121.483C71.4374 120.589 66.2374 124.083 65.344 129.416C59.0507 121.161 46.652 125.495 44.624 132.896C38.824 130.763 31.3574 135.816 33.184 142.976L33.016 142.808C33.16 143.352 33.2774 143.92 33.344 144.536Z" fill="#B74F2F"/>
<path d="M192.231 146.087C192.231 157.315 158.652 166.42 117.231 166.42C75.811 166.42 42.231 157.315 42.231 146.087C42.231 134.859 75.811 125.753 117.231 125.753C158.652 125.753 192.231 134.859 192.231 146.087Z" fill="#612D26"/>
<path d="M215.932 141.495C219.411 142.615 222.104 145.976 221.784 150.749C221.291 158.296 216.331 160.549 211.224 159.816C211.224 161.175 210.917 162.629 210.237 164.083C207.877 169.189 199.571 171.203 191.571 167.643C189.599 178.243 175.571 178.828 170.117 175.401C167.371 181.629 158.265 183.416 153.397 179.456C151.304 185.656 140.104 186.896 136.171 180.643C132.517 185.976 126.291 188.643 116.171 187.643C110.599 187.083 107.171 185.229 105.144 182.936C96.4508 191.216 81.7974 185.803 79.5041 178.643C77.1841 181.803 71.8508 183.803 65.3441 182.643C61.7041 181.989 58.0374 179.523 56.3841 175.936C51.0774 182.309 38.1174 179.068 37.1841 171.309C30.9574 173.589 19.5041 172.976 15.8508 167.483C14.5708 165.563 13.8374 163.696 13.5307 161.936C5.47741 162.549 0.304088 158.963 0.0107543 152.976C-0.229246 148.123 3.58409 144.096 7.81075 143.309C9.51742 142.976 11.3041 143.189 12.9041 144.083C13.1174 140.976 16.6641 135.869 23.3441 135.869C27.7841 135.869 32.6774 138.309 33.3441 144.536C39.1308 134.309 51.5308 138.828 53.1707 145.068C58.3974 143.068 65.9174 146.443 66.7441 151.923C69.6641 148.469 74.7308 147.495 78.5174 147.803C82.3041 148.123 85.7707 149.976 87.8241 152.376C92.0907 146.856 103.477 149.068 104.144 154.948C106.637 151.603 110.717 149.336 115.117 148.976C120.971 148.495 126.344 150.841 129.664 154.029C131.184 148.149 136.331 145.909 140.344 145.483C145.011 144.976 151.851 146.976 153.784 153.869C154.677 149.136 162.171 146.976 164.904 152.083C165.677 146.816 169.237 143.029 175.344 141.643C178.904 140.828 182.117 141.161 184.557 142.696C185.957 139.243 189.652 135.948 194.011 135.643C199.611 135.256 206.011 137.136 207.571 143.203C210.144 141.083 213.277 140.629 215.932 141.495Z" fill="#E88D3A"/>
<path d="M216.549 141.753C215.979 148.724 211.319 150.817 206.513 150.128C206.513 151.424 206.221 152.809 205.575 154.193C203.324 159.06 195.408 160.98 187.784 157.587C185.903 167.689 172.535 168.248 167.337 164.983C164.719 170.917 156.043 172.62 151.403 168.844C149.407 174.753 138.735 175.936 134.985 169.976C131.501 175.059 125.568 177.601 115.924 176.648C110.612 176.113 107.345 174.347 105.415 172.161C97.1293 180.052 83.1626 174.893 80.9786 168.071C78.7666 171.081 73.684 172.988 67.484 171.881C64.0133 171.26 60.5186 168.909 58.944 165.491C53.8853 171.564 41.536 168.477 40.6453 161.081C34.7106 163.253 23.7946 162.669 20.3133 157.433C19.0933 155.604 18.3933 153.825 18.1013 152.149C10.6973 152.712 5.8613 149.545 5.2773 144.197C2.18396 145.803 -0.178703 149.125 0.0106299 152.976C0.303963 158.963 5.47728 162.549 13.5306 161.936C13.8373 163.696 14.5706 165.563 15.8506 167.483C19.504 172.976 30.9573 173.589 37.184 171.309C38.1173 179.068 51.0773 182.309 56.384 175.936C58.0373 179.523 61.704 181.989 65.344 182.643C71.8506 183.803 77.184 181.803 79.504 178.643C81.7973 185.803 96.4506 191.216 105.144 182.936C107.171 185.229 110.599 187.083 116.171 187.643C126.291 188.643 132.517 185.976 136.171 180.643C140.104 186.896 151.304 185.656 153.397 179.456C158.265 183.416 167.371 181.629 170.117 175.401C175.571 178.828 189.599 178.243 191.571 167.643C199.571 171.203 207.877 169.189 210.237 164.083C210.917 162.629 211.224 161.175 211.224 159.816C216.331 160.549 221.291 158.296 221.784 150.749C222.085 146.269 219.719 143.057 216.549 141.753Z" fill="#D87639"/>
<path d="M29.8042 146.045L29.8282 146.063L29.8842 146.103L29.8042 146.045Z" fill="#F1AC56"/>
<path d="M30.3283 146.449C30.1617 146.321 29.9937 146.192 29.8283 146.063C29.2897 145.581 28.6483 145.263 27.9737 145.132C28.223 144.5 28.3537 143.759 28.2723 143.087C28.071 141.401 27.4577 140.295 26.0737 139.284C24.991 138.495 23.503 138.581 22.267 138.776C21.1843 138.948 20.1497 139.737 19.3763 140.459C17.5537 142.157 16.4803 145.063 17.835 147.357C18.923 149.196 21.303 149.907 23.343 149.471C23.2883 150.061 23.3537 150.659 23.5923 151.235C23.939 152.071 24.0657 152.293 24.6443 153.011C25.1883 153.685 26.1923 153.956 27.011 153.991C27.2763 154.001 27.9323 154.181 27.0963 153.961C28.6203 154.363 30.1617 153.709 30.9843 152.38C31.5443 151.472 31.5283 150.465 31.5643 149.448C31.591 148.704 31.395 147.891 30.9923 147.261C30.8243 146.94 30.603 146.669 30.3283 146.449Z" fill="#F1AC56"/>
<path d="M55.181 154.251L54.9197 154.057C54.5677 153.633 54.137 153.284 53.6397 153.045C53.2144 151.732 52.3423 150.592 51.0597 149.789C50.2437 149.279 49.1304 149.008 48.1144 149.103C48.1384 148.851 48.157 148.597 48.141 148.353C48.0397 146.917 47.5344 145.761 46.581 144.685C45.0077 142.911 41.945 143.011 40.3544 144.655C39.1837 145.863 39.0464 147.489 39.6477 148.815C39.3717 149.983 39.797 151.265 40.5997 152.149C41.289 152.912 42.5344 153.264 43.5477 153.197C43.0304 154.407 42.9264 155.821 43.2757 157.039C43.9677 159.436 46.1557 160.416 48.369 160.292C49.177 160.427 50.013 160.436 50.8877 160.415L51.0157 160.469H51.021C52.417 161.043 53.9704 160.912 55.181 159.701C56.545 158.336 56.8224 155.568 55.181 154.251Z" fill="#F1AC56"/>
<path d="M74.7413 152.876C73.4333 153.176 72.1173 153.796 71.052 154.675C70.728 154.467 70.3759 154.292 69.9799 154.131C71.5559 154.773 70.6053 154.355 70.22 154.161C69.2213 153.661 68.5386 153.513 67.4373 153.397C66.5919 153.309 65.5346 153.621 64.8213 154.063C63.972 154.589 63.0173 155.556 62.8679 156.576C62.7053 157.683 62.7039 157.856 62.8693 158.96C63.0626 160.264 64.4119 161.371 65.6066 161.699C65.9839 161.803 66.3853 161.839 66.788 161.821L66.9346 161.876C67.8026 162.103 68.6013 161.999 69.3933 161.748C69.6639 162.284 69.9973 162.787 70.4119 163.224C70.9146 164.413 71.8973 165.425 73.3626 165.911C75.9879 166.78 79.3253 166.311 81.5226 164.672C84.8373 162.204 86.0466 157.913 83.1053 154.615C81.1479 152.421 77.3959 152.267 74.7413 152.876Z" fill="#F1AC56"/>
<path d="M58.6787 148.385C57.1467 148.385 55.8667 149.664 55.8667 151.199C55.8667 152.732 57.1467 154.011 58.6787 154.011C60.2107 154.011 61.4907 152.732 61.4907 151.199C61.4907 149.664 60.2107 148.385 58.6787 148.385Z" fill="#F1AC56"/>
<path d="M131.567 162.424C130.176 162.424 129.015 163.584 129.015 164.976C129.015 166.368 130.176 167.528 131.567 167.528C132.957 167.528 134.119 166.368 134.119 164.976C134.119 163.584 132.957 162.424 131.567 162.424Z" fill="#F1AC56"/>
<path d="M33.5374 154.451L33.4387 154.524C32.3787 154.82 31.6973 156.233 32.6693 157.207C33.6453 158.183 35.0667 157.493 35.3573 156.431L35.4253 156.339C36.2333 155.245 34.6294 153.64 33.5374 154.451Z" fill="#F1AC56"/>
<path d="M99.4642 158.349C98.4349 157.893 97.6549 157.639 96.4989 157.612C95.4562 157.589 94.3896 158.016 93.4896 158.483C91.0349 159.753 89.7936 163.139 91.3296 165.547C91.7989 166.281 92.4336 166.86 93.1762 167.232C93.7669 167.865 94.5282 168.336 95.3696 168.516C96.5949 168.776 97.6603 168.565 98.7776 168.013L98.9656 167.892C99.8229 167.221 99.9283 167.147 99.2776 167.664C99.6629 167.425 100.019 167.125 100.355 166.82C101.551 165.727 102.162 164.491 102.316 162.867C102.49 161.049 101.068 159.06 99.4642 158.349Z" fill="#F1AC56"/>
<path d="M125.972 157.901C124.272 156.144 121.888 155.324 119.511 155.074C116.511 154.764 114.05 155.617 112.268 158.141C112.056 158.442 111.878 158.752 111.719 159.065C110.403 158.468 108.832 158.38 107.403 158.628C107.09 158.682 106.794 158.782 106.512 158.912C104.556 159.6 103.231 161.757 103.468 163.813C103.728 166.069 105.1 167.966 107.414 168.48C109.399 168.92 111.303 168.412 112.855 167.128L112.887 167.094C113.891 168.201 115.246 169.034 116.852 169.39C117.26 169.482 117.664 169.528 118.07 169.552C118.955 169.716 119.862 169.672 120.702 169.417C120.835 169.428 120.964 169.441 121.1 169.448C126.775 169.688 129.768 161.826 125.972 157.901Z" fill="#F1AC56"/>
<path d="M147.533 154.073C147.505 153.864 147.467 153.656 147.4 153.451C147.043 152.368 145.977 151.28 144.724 151.415C143.361 151.56 142.179 152.059 141.444 153.303C141.044 153.98 140.953 154.709 141.052 155.401C138.824 155.533 136.981 157.231 136.911 159.513C136.852 159.704 136.801 159.893 136.765 160.081C136.432 161.769 137.22 163.852 139.116 164.221C140.339 164.461 141.421 164.563 142.648 164.328C144.907 163.899 146.269 161.832 146.356 159.643C146.379 159.057 146.237 158.497 145.995 157.983C147.015 157.376 147.691 156.227 147.625 155.06L147.636 154.98C147.625 154.6 147.504 153.759 147.533 154.073Z" fill="#F1AC56"/>
<path d="M189.011 147.992C188.14 147.992 187.335 148.292 186.673 148.78L186.573 148.525C186.444 148.251 186.137 147.393 186.527 148.568C186.337 147.997 186.057 147.352 185.712 146.837C184.105 144.433 181.6 143.437 178.768 143.865C180.416 143.617 178.533 143.828 177.983 144.013C177.145 144.292 176.389 144.685 175.759 145.316C174.552 146.521 174.012 148.4 174.46 150.055L174.401 150.403C173.759 150.368 173.067 150.437 172.587 150.612C171.431 151.033 170.703 151.647 169.975 152.519C169.56 152.385 169.131 152.293 168.677 152.293C166.571 152.293 164.783 153.857 164.409 155.868C163.991 155.485 163.524 155.156 163.081 154.917C161.679 154.163 160.128 153.928 158.579 154.323C156.889 154.752 155.479 156.48 155.545 158.257L155.492 158.324C154.905 159.152 154.944 160.313 155.149 161.245C155.376 162.284 156.263 163.199 157.139 163.751C158.155 164.392 159.491 164.639 160.676 164.519C162.044 164.383 163.687 164.036 164.647 162.943C165.237 162.269 165.716 161.597 165.929 160.708C165.984 160.477 166.001 160.261 166.021 160.044C166.763 160.627 167.679 160.992 168.677 160.992C169.357 160.992 169.995 160.815 170.573 160.527C170.804 160.693 171.048 160.836 171.307 160.956C171.72 161.643 172.508 162.36 173.324 162.492C174.499 162.685 175.461 162.896 176.663 162.656C178.432 162.303 179.548 160.589 180.128 159.021C180.349 158.424 180.421 157.828 180.385 157.253C181.22 157.251 182.044 157.147 182.741 156.991C184.027 156.703 185.273 155.811 186.12 154.681C186.852 155.461 187.877 155.96 189.011 155.96C191.183 155.96 192.995 154.148 192.995 151.976C192.995 149.804 191.183 147.992 189.011 147.992Z" fill="#F1AC56"/>
<path d="M202.825 141.519C202.098 140.193 200.944 139.456 199.58 138.92C198.474 138.484 196.97 138.336 195.849 138.764C194.006 139.464 192.641 140.891 192.641 142.976C192.641 143.816 192.87 144.543 193.256 145.163C193.341 146.147 193.678 146.779 194.28 147.555C194.673 148.063 195.309 148.433 195.894 148.696C197.125 149.253 198.516 149.799 199.873 149.279C201.532 148.647 202.545 147.573 203.156 145.923C203.693 144.471 203.569 142.873 202.825 141.519Z" fill="#F1AC56"/>
<path d="M110.905 169.151C122.831 169.151 160.684 167.076 169.499 161.372C167.943 122.483 164.356 81.0466 158.609 63.6293C150.887 40.22 132.92 25 110.905 25C88.8907 25 70.924 40.22 63.2013 63.6293C57.4547 81.0466 53.868 122.483 52.312 161.372C61.1267 167.076 98.98 169.151 110.905 169.151Z" fill="#CD5C29"/>
<path d="M110.905 144.883C87.4813 144.883 66.9333 132.356 55.3107 113.521C53.9547 128.645 52.9573 145.224 52.312 161.372C61.1267 167.076 98.98 169.151 110.905 169.151C122.831 169.151 160.684 167.076 169.499 161.372C168.853 145.224 167.856 128.645 166.5 113.521C154.877 132.356 134.329 144.883 110.905 144.883Z" fill="#BA4927"/>
<path d="M59.6453 162.74C61.112 126.064 64.496 86.9867 69.9147 70.5587C77.1987 48.4827 94.144 34.1266 114.905 34.1266C135.668 34.1266 152.612 48.4827 159.896 70.5587C160.889 73.5707 160.111 68.1774 158.609 63.6294C150.887 40.22 132.92 25.0001 110.905 25.0001C88.8907 25.0001 70.924 40.22 63.2013 63.6294C57.4547 81.0467 53.868 122.483 52.312 161.372C55.404 163.373 61.6827 164.059 59.6453 162.74Z" fill="#E6894A"/>
<path d="M54.3602 160.236C64.0322 165.085 98.2802 167.151 110.906 167.151C123.531 167.151 157.779 165.085 167.451 160.236C165.591 114.86 161.586 79.0319 156.711 64.2559C149.13 41.2759 131.578 27 110.906 27C90.2336 27 72.6816 41.2759 65.1002 64.2559C60.2256 79.0319 56.2202 114.86 54.3602 160.236ZM110.906 171.151C103.576 171.151 61.4336 169.657 51.2256 163.051C50.6322 162.667 50.2856 161.997 50.3136 161.292C51.2029 139.057 54.0536 84.9719 61.3016 63.0026C69.4416 38.3279 88.4482 23 110.906 23C133.363 23 152.37 38.3279 160.51 63.0026C167.758 84.9719 170.608 139.057 171.498 161.292C171.526 161.997 171.179 162.667 170.586 163.051C160.378 169.657 118.235 171.151 110.906 171.151Z" fill="#100F0D"/>
<path d="M119.336 108.496L119.349 108.549C119.349 112.789 115.576 119.963 110.909 119.963C106.242 119.963 102.456 112.789 102.456 108.549L102.482 108.496C105.029 109.311 107.896 109.776 110.909 109.776C113.936 109.776 116.789 109.311 119.336 108.496Z" fill="#F8F8F8"/>
<path d="M110.909 83.9908C121.576 83.9908 130.242 89.7641 130.242 96.8828C130.242 101.991 125.789 106.403 119.336 108.496C116.789 109.311 113.936 109.776 110.909 109.776C107.896 109.776 105.029 109.311 102.482 108.496V108.484C96.029 106.403 91.5757 101.991 91.5757 96.8828C91.5757 89.7641 100.229 83.9908 110.909 83.9908Z" fill="#FDEAB3"/>
<path d="M119.683 92.1825C119.683 95.3132 115.753 99.3278 110.905 99.3278C106.057 99.3278 102.128 95.3132 102.128 92.1825C102.128 89.0532 106.057 87.9945 110.905 87.9945C115.753 87.9945 119.683 89.0532 119.683 92.1825Z" fill="#100F0D"/>
<path d="M110.655 91.2001C110.776 92.0187 109.671 92.8654 108.186 93.0894C106.699 93.3134 105.392 92.8307 105.268 92.0121C105.147 91.1934 106.251 90.3467 107.738 90.1227C109.223 89.8987 110.531 90.3801 110.655 91.2001Z" fill="white"/>
<path d="M110.905 108.439C100.98 108.439 92.9054 103.256 92.9054 96.8827C92.9054 90.5107 100.98 85.3267 110.905 85.3267C120.831 85.3267 128.905 90.5107 128.905 96.8827C128.905 103.256 120.831 108.439 110.905 108.439ZM111.905 118.465V111.071C113.969 111.003 115.952 110.728 117.816 110.271C117.123 113.589 114.669 117.635 111.905 118.465ZM103.995 110.271C105.859 110.728 107.841 111.003 109.905 111.071V118.465C107.141 117.635 104.688 113.589 103.995 110.271ZM131.572 96.8827C131.572 89.0413 122.301 82.66 110.905 82.66C99.5094 82.66 90.2388 89.0413 90.2388 96.8827C90.2388 102.305 94.6721 107.025 101.175 109.424C101.635 114.023 105.516 121.3 110.905 121.3C116.295 121.3 120.176 114.023 120.636 109.424C127.139 107.025 131.572 102.305 131.572 96.8827Z" fill="#100F0D"/>
<path d="M98 98.1252H87.4787C87.1093 98.1252 86.812 97.8265 86.812 97.4585C86.812 97.0905 87.1093 96.7918 87.4787 96.7918H98C98.3693 96.7918 98.6667 97.0905 98.6667 97.4585C98.6667 97.8265 98.3693 98.1252 98 98.1252Z" fill="#100F0D"/>
<path d="M88.113 106.171C87.8743 106.171 87.6423 106.041 87.5236 105.815C87.3516 105.489 87.4783 105.085 87.8037 104.915L97.6903 99.7186C98.0143 99.5479 98.4196 99.6733 98.5903 99.9986C98.7623 100.325 98.6357 100.728 98.3103 100.899L88.4236 106.095L88.113 106.171Z" fill="#100F0D"/>
<path d="M97.9997 95.5934L97.6903 95.5161L87.8037 90.3214C87.4783 90.1508 87.3516 89.7468 87.5236 89.4214C87.6943 89.0961 88.0996 88.9721 88.4236 89.1414L98.3103 94.3361C98.6357 94.5068 98.7623 94.9108 98.5903 95.2361C98.4716 95.4628 98.2397 95.5934 97.9997 95.5934Z" fill="#100F0D"/>
<path d="M134.332 98.1252H123.811C123.441 98.1252 123.144 97.8265 123.144 97.4585C123.144 97.0905 123.441 96.7918 123.811 96.7918H134.332C134.701 96.7918 134.999 97.0905 134.999 97.4585C134.999 97.8265 134.701 98.1252 134.332 98.1252Z" fill="#100F0D"/>
<path d="M133.697 106.171L133.387 106.095L123.5 100.899C123.175 100.728 123.048 100.325 123.22 99.9986C123.392 99.6733 123.796 99.5479 124.12 99.7186L134.007 104.915C134.332 105.085 134.459 105.489 134.287 105.815C134.168 106.041 133.936 106.171 133.697 106.171Z" fill="#100F0D"/>
<path d="M123.811 95.5934C123.571 95.5934 123.339 95.4628 123.22 95.2361C123.048 94.9108 123.175 94.5068 123.5 94.3361L133.387 89.1414C133.711 88.9721 134.116 89.0961 134.287 89.4214C134.459 89.7468 134.332 90.1508 134.007 90.3214L124.12 95.5161L123.811 95.5934Z" fill="#100F0D"/>
<path d="M87.1558 82.8828C87.1558 86.8122 83.9731 89.9948 80.0438 89.9948C76.1171 89.9948 72.9331 86.8122 72.9331 82.8828C72.9331 78.9562 76.1171 75.7722 80.0438 75.7722C83.9731 75.7722 87.1558 78.9562 87.1558 82.8828Z" fill="#100F0D"/>
<path d="M80.0441 80.9945C80.0441 82.1598 79.0988 83.1052 77.9334 83.1052C76.7668 83.1052 75.8228 82.1598 75.8228 80.9945C75.8228 79.8292 76.7668 78.8838 77.9334 78.8838C79.0988 78.8838 80.0441 79.8292 80.0441 80.9945Z" fill="white"/>
<path d="M67.8228 67.716C75.4294 68.8414 89.4041 71.5787 98.3401 75.164C101.461 68.0853 102.085 59.9574 99.5668 52.352C99.6374 56.624 99.1241 59.8707 98.2854 62.2893C86.8228 56.832 75.9534 53.9467 72.1094 53.132C70.2374 56.2587 68.0548 62.848 67.8228 67.716Z" fill="#100F0D"/>
<path d="M148.876 82.8828C148.876 86.8122 145.692 89.9948 141.764 89.9948C137.836 89.9948 134.653 86.8122 134.653 82.8828C134.653 78.9562 137.836 75.7722 141.764 75.7722C145.692 75.7722 148.876 78.9562 148.876 82.8828Z" fill="#100F0D"/>
<path d="M141.763 80.9945C141.763 82.1598 140.818 83.1052 139.652 83.1052C138.487 83.1052 137.542 82.1598 137.542 80.9945C137.542 79.8292 138.487 78.8838 139.652 78.8838C140.818 78.8838 141.763 79.8292 141.763 80.9945Z" fill="white"/>
<path d="M153.99 67.716C146.382 68.8414 132.407 71.5787 123.471 75.164C120.35 68.0853 119.726 59.9574 122.244 52.352C122.174 56.624 122.687 59.8707 123.526 62.2893C134.99 56.832 145.858 53.9467 149.702 53.132C151.574 56.2587 153.756 62.848 153.99 67.716Z" fill="#100F0D"/>
<path d="M215.932 141.495C219.411 142.615 222.104 145.976 221.784 150.749C221.291 158.296 216.331 160.549 211.224 159.816C211.224 161.175 210.917 162.629 210.237 164.083C207.877 169.189 199.571 171.203 191.571 167.643C189.599 178.243 175.571 178.828 170.117 175.401C167.371 181.629 158.265 183.416 153.397 179.456C151.304 185.656 140.104 186.896 136.171 180.643C132.517 185.976 126.291 188.643 116.171 187.643C110.599 187.083 107.171 185.229 105.144 182.936C96.4508 191.216 81.7974 185.803 79.5041 178.643C77.1841 181.803 71.8508 183.803 65.3441 182.643C61.7041 181.989 58.0374 179.523 56.3841 175.936C51.0774 182.309 38.1174 179.068 37.1841 171.309C30.9574 173.589 19.5041 172.976 15.8508 167.483C14.5708 165.563 13.8374 163.696 13.5307 161.936C5.47741 162.549 0.304088 158.963 0.0107543 152.976C-0.229246 148.123 3.58409 144.096 7.81075 143.309C9.51742 142.976 11.3041 143.189 12.9041 144.083C13.1174 140.976 16.6641 135.869 23.3441 135.869C27.7841 135.869 32.6774 138.309 33.3441 144.536C39.1308 134.309 51.5308 138.828 53.1707 145.068C58.3974 143.068 65.9174 146.443 66.7441 151.923C69.6641 148.469 74.7308 147.495 78.5174 147.803C82.3041 148.123 85.7707 149.976 87.8241 152.376C92.0907 146.856 103.477 149.068 104.144 154.948C106.637 151.603 110.717 149.336 115.117 148.976C120.971 148.495 126.344 150.841 129.664 154.029C131.184 148.149 136.331 145.909 140.344 145.483C145.011 144.976 151.851 146.976 153.784 153.869C154.677 149.136 162.171 146.976 164.904 152.083C165.677 146.816 169.237 143.029 175.344 141.643C178.904 140.828 182.117 141.161 184.557 142.696C185.957 139.243 189.652 135.948 194.011 135.643C199.611 135.256 206.011 137.136 207.571 143.203C210.144 141.083 213.277 140.629 215.932 141.495Z" fill="#E88D3A"/>
<path d="M216.549 141.753C215.979 148.724 211.319 150.817 206.513 150.128C206.513 151.424 206.221 152.809 205.575 154.193C203.324 159.06 195.408 160.98 187.784 157.587C185.903 167.689 172.535 168.248 167.337 164.983C164.719 170.917 156.043 172.62 151.403 168.844C149.407 174.753 138.735 175.936 134.985 169.976C131.501 175.059 125.568 177.601 115.924 176.648C110.612 176.113 107.345 174.347 105.415 172.161C97.1293 180.052 83.1626 174.893 80.9786 168.071C78.7666 171.081 73.684 172.988 67.484 171.881C64.0133 171.26 60.5186 168.909 58.944 165.491C53.8853 171.564 41.536 168.477 40.6453 161.081C34.7106 163.253 23.7946 162.669 20.3133 157.433C19.0933 155.604 18.3933 153.825 18.1013 152.149C10.6973 152.712 5.8613 149.545 5.2773 144.197C2.18396 145.803 -0.178703 149.125 0.0106299 152.976C0.303963 158.963 5.47728 162.549 13.5306 161.936C13.8373 163.696 14.5706 165.563 15.8506 167.483C19.504 172.976 30.9573 173.589 37.184 171.309C38.1173 179.068 51.0773 182.309 56.384 175.936C58.0373 179.523 61.704 181.989 65.344 182.643C71.8506 183.803 77.184 181.803 79.504 178.643C81.7973 185.803 96.4506 191.216 105.144 182.936C107.171 185.229 110.599 187.083 116.171 187.643C126.291 188.643 132.517 185.976 136.171 180.643C140.104 186.896 151.304 185.656 153.397 179.456C158.265 183.416 167.371 181.629 170.117 175.401C175.571 178.828 189.599 178.243 191.571 167.643C199.571 171.203 207.877 169.189 210.237 164.083C210.917 162.629 211.224 161.175 211.224 159.816C216.331 160.549 221.291 158.296 221.784 150.749C222.085 146.269 219.719 143.057 216.549 141.753Z" fill="#D87639"/>
<path d="M29.8042 146.045L29.8282 146.063L29.8842 146.103L29.8042 146.045Z" fill="#F1AC56"/>
<path d="M30.3283 146.449C30.1617 146.321 29.9937 146.192 29.8283 146.063C29.2897 145.581 28.6483 145.263 27.9737 145.132C28.223 144.5 28.3537 143.759 28.2723 143.087C28.071 141.401 27.4577 140.295 26.0737 139.284C24.991 138.495 23.503 138.581 22.267 138.776C21.1843 138.948 20.1497 139.737 19.3763 140.459C17.5537 142.157 16.4803 145.063 17.835 147.357C18.923 149.196 21.303 149.907 23.343 149.471C23.2883 150.061 23.3537 150.659 23.5923 151.235C23.939 152.071 24.0657 152.293 24.6443 153.011C25.1883 153.685 26.1923 153.956 27.011 153.991C27.2763 154.001 27.9323 154.181 27.0963 153.961C28.6203 154.363 30.1617 153.709 30.9843 152.38C31.5443 151.472 31.5283 150.465 31.5643 149.448C31.591 148.704 31.395 147.891 30.9923 147.261C30.8243 146.94 30.603 146.669 30.3283 146.449Z" fill="#F1AC56"/>
<path d="M55.181 154.251L54.9197 154.057C54.5677 153.633 54.137 153.284 53.6397 153.045C53.2144 151.732 52.3423 150.592 51.0597 149.789C50.2437 149.279 49.1304 149.008 48.1144 149.103C48.1384 148.851 48.157 148.597 48.141 148.353C48.0397 146.917 47.5344 145.761 46.581 144.685C45.0077 142.911 41.945 143.011 40.3544 144.655C39.1837 145.863 39.0464 147.489 39.6477 148.815C39.3717 149.983 39.797 151.265 40.5997 152.149C41.289 152.912 42.5344 153.264 43.5477 153.197C43.0304 154.407 42.9264 155.821 43.2757 157.039C43.9677 159.436 46.1557 160.416 48.369 160.292C49.177 160.427 50.013 160.436 50.8877 160.415L51.0157 160.469H51.021C52.417 161.043 53.9704 160.912 55.181 159.701C56.545 158.336 56.8224 155.568 55.181 154.251Z" fill="#F1AC56"/>
<path d="M74.7413 152.876C73.4333 153.176 72.1173 153.796 71.052 154.675C70.728 154.467 70.3759 154.292 69.9799 154.131C71.5559 154.773 70.6053 154.355 70.22 154.161C69.2213 153.661 68.5386 153.513 67.4373 153.397C66.5919 153.309 65.5346 153.621 64.8213 154.063C63.972 154.589 63.0173 155.556 62.8679 156.576C62.7053 157.683 62.7039 157.856 62.8693 158.96C63.0626 160.264 64.4119 161.371 65.6066 161.699C65.9839 161.803 66.3853 161.839 66.788 161.821L66.9346 161.876C67.8026 162.103 68.6013 161.999 69.3933 161.748C69.6639 162.284 69.9973 162.787 70.4119 163.224C70.9146 164.413 71.8973 165.425 73.3626 165.911C75.9879 166.78 79.3253 166.311 81.5226 164.672C84.8373 162.204 86.0466 157.913 83.1053 154.615C81.1479 152.421 77.3959 152.267 74.7413 152.876Z" fill="#F1AC56"/>
<path d="M58.6787 148.385C57.1467 148.385 55.8667 149.664 55.8667 151.199C55.8667 152.732 57.1467 154.011 58.6787 154.011C60.2107 154.011 61.4907 152.732 61.4907 151.199C61.4907 149.664 60.2107 148.385 58.6787 148.385Z" fill="#F1AC56"/>
<path d="M131.567 162.424C130.176 162.424 129.015 163.584 129.015 164.976C129.015 166.368 130.176 167.528 131.567 167.528C132.957 167.528 134.119 166.368 134.119 164.976C134.119 163.584 132.957 162.424 131.567 162.424Z" fill="#F1AC56"/>
<path d="M33.5374 154.451L33.4387 154.524C32.3787 154.82 31.6973 156.233 32.6693 157.207C33.6453 158.183 35.0667 157.493 35.3573 156.431L35.4253 156.339C36.2333 155.245 34.6294 153.64 33.5374 154.451Z" fill="#F1AC56"/>
<path d="M99.4642 158.349C98.4349 157.893 97.6549 157.639 96.4989 157.612C95.4562 157.589 94.3896 158.016 93.4896 158.483C91.0349 159.753 89.7936 163.139 91.3296 165.547C91.7989 166.281 92.4336 166.86 93.1762 167.232C93.7669 167.865 94.5282 168.336 95.3696 168.516C96.5949 168.776 97.6603 168.565 98.7776 168.013L98.9656 167.892C99.8229 167.221 99.9283 167.147 99.2776 167.664C99.6629 167.425 100.019 167.125 100.355 166.82C101.551 165.727 102.162 164.491 102.316 162.867C102.49 161.049 101.068 159.06 99.4642 158.349Z" fill="#F1AC56"/>
<path d="M125.972 157.901C124.272 156.144 121.888 155.324 119.511 155.074C116.511 154.764 114.05 155.617 112.268 158.141C112.056 158.442 111.878 158.752 111.719 159.065C110.403 158.468 108.832 158.38 107.403 158.628C107.09 158.682 106.794 158.782 106.512 158.912C104.556 159.6 103.231 161.757 103.468 163.813C103.728 166.069 105.1 167.966 107.414 168.48C109.399 168.92 111.303 168.412 112.855 167.128L112.887 167.094C113.891 168.201 115.246 169.034 116.852 169.39C117.26 169.482 117.664 169.528 118.07 169.552C118.955 169.716 119.862 169.672 120.702 169.417C120.835 169.428 120.964 169.441 121.1 169.448C126.775 169.688 129.768 161.826 125.972 157.901Z" fill="#F1AC56"/>
<path d="M147.533 154.073C147.505 153.864 147.467 153.656 147.4 153.451C147.043 152.368 145.977 151.28 144.724 151.415C143.361 151.56 142.179 152.059 141.444 153.303C141.044 153.98 140.953 154.709 141.052 155.401C138.824 155.533 136.981 157.231 136.911 159.513C136.852 159.704 136.801 159.893 136.765 160.081C136.432 161.769 137.22 163.852 139.116 164.221C140.339 164.461 141.421 164.563 142.648 164.328C144.907 163.899 146.269 161.832 146.356 159.643C146.379 159.057 146.237 158.497 145.995 157.983C147.015 157.376 147.691 156.227 147.625 155.06L147.636 154.98C147.625 154.6 147.504 153.759 147.533 154.073Z" fill="#F1AC56"/>
<path d="M189.011 147.992C188.14 147.992 187.335 148.292 186.673 148.78L186.573 148.525C186.444 148.251 186.137 147.393 186.527 148.568C186.337 147.997 186.057 147.352 185.712 146.837C184.105 144.433 181.6 143.437 178.768 143.865C180.416 143.617 178.533 143.828 177.983 144.013C177.145 144.292 176.389 144.685 175.759 145.316C174.552 146.521 174.012 148.4 174.46 150.055L174.401 150.403C173.759 150.368 173.067 150.437 172.587 150.612C171.431 151.033 170.703 151.647 169.975 152.519C169.56 152.385 169.131 152.293 168.677 152.293C166.571 152.293 164.783 153.857 164.409 155.868C163.991 155.485 163.524 155.156 163.081 154.917C161.679 154.163 160.128 153.928 158.579 154.323C156.889 154.752 155.479 156.48 155.545 158.257L155.492 158.324C154.905 159.152 154.944 160.313 155.149 161.245C155.376 162.284 156.263 163.199 157.139 163.751C158.155 164.392 159.491 164.639 160.676 164.519C162.044 164.383 163.687 164.036 164.647 162.943C165.237 162.269 165.716 161.597 165.929 160.708C165.984 160.477 166.001 160.261 166.021 160.044C166.763 160.627 167.679 160.992 168.677 160.992C169.357 160.992 169.995 160.815 170.573 160.527C170.804 160.693 171.048 160.836 171.307 160.956C171.72 161.643 172.508 162.36 173.324 162.492C174.499 162.685 175.461 162.896 176.663 162.656C178.432 162.303 179.548 160.589 180.128 159.021C180.349 158.424 180.421 157.828 180.385 157.253C181.22 157.251 182.044 157.147 182.741 156.991C184.027 156.703 185.273 155.811 186.12 154.681C186.852 155.461 187.877 155.96 189.011 155.96C191.183 155.96 192.995 154.148 192.995 151.976C192.995 149.804 191.183 147.992 189.011 147.992Z" fill="#F1AC56"/>
<path d="M202.825 141.519C202.098 140.193 200.944 139.456 199.58 138.92C198.474 138.484 196.97 138.336 195.849 138.764C194.006 139.464 192.641 140.891 192.641 142.976C192.641 143.816 192.87 144.543 193.256 145.163C193.341 146.147 193.678 146.779 194.28 147.555C194.673 148.063 195.309 148.433 195.894 148.696C197.125 149.253 198.516 149.799 199.873 149.279C201.532 148.647 202.545 147.573 203.156 145.923C203.693 144.471 203.569 142.873 202.825 141.519Z" fill="#F1AC56"/>
<path d="M54.5163 160.924L54.5977 161.122C48.7697 163.549 42.9843 164.962 38.063 165.377C40.7297 157.71 47.9563 149.044 50.2896 147.044L51.3177 146.59C53.063 150.484 54.223 155.229 54.5163 160.924Z" fill="#FDEAB3"/>
<path d="M51.3174 146.591L50.2894 147.044C41.2894 153.377 34.6227 155.591 26.9561 156.924C29.2894 150.711 34.5161 142.377 42.2894 136.817L42.9561 135.871C46.2641 138.349 49.2227 141.843 51.3174 146.591Z" fill="#FDEAB3"/>
<path d="M30.6893 131.084C34.7293 131.496 39.076 132.99 42.956 135.87L42.2893 136.817C32.956 142.15 25.4093 144.71 19.396 147.377C21.264 141.122 24.4627 135.537 30.6893 131.084Z" fill="#FDEAB3"/>
<path d="M72.729 130.364C77.449 136.257 77.6356 147.216 65.3956 155.377C61.9303 157.697 58.249 159.603 54.597 161.123L54.5157 160.924C54.2223 155.229 53.0623 150.484 51.317 146.591C49.2223 141.843 46.2636 138.349 42.9556 135.871C39.0756 132.991 34.729 131.496 30.689 131.084C33.7823 128.871 37.609 126.949 42.3956 125.364C53.5156 121.697 67.3956 123.697 72.729 130.364Z" fill="#CD5C29"/>
<path d="M73.5599 141.072C73.0506 144.357 71.0293 149.215 64.2933 153.707C61.5866 155.511 58.6653 157.111 55.6613 158.477C54.0013 141.636 44.5853 133.277 35.236 130.616C37.4586 129.388 40.0306 128.259 43.0293 127.269C46.4279 126.147 50.228 125.553 54.02 125.553C61.608 125.553 68.1813 127.879 71.1746 131.617C73.2253 134.183 74.0959 137.628 73.5599 141.072ZM50.9253 149.192C52.0013 152.192 52.7413 155.649 53.0586 159.597C49.1159 161.179 45.0866 162.335 41.2386 162.963C44.0506 157.121 48.7666 151.371 50.9253 149.192ZM30.3253 154.213C32.9306 148.956 37.364 142.793 43.4546 138.441L43.7186 138.161C45.8346 140.041 47.7266 142.416 49.2599 145.343L49.1413 145.401C41.804 150.564 36.2026 152.853 30.3253 154.213ZM23.8066 143.345C23.4813 143.479 23.16 143.609 22.8426 143.741C24.508 139.971 27.196 136.031 32.0346 132.613C34.8333 133.071 37.6506 134.06 40.2826 135.641C34.0053 139.144 28.5973 141.377 23.8066 143.345ZM54.02 121.553C49.808 121.553 45.5733 122.216 41.776 123.469C28.4733 127.86 20.9826 135.055 17.4866 146.8C17.264 147.547 17.496 148.357 18.0826 148.873C18.6693 149.387 19.5026 149.515 20.2146 149.199C21.8066 148.491 23.5093 147.791 25.3253 147.045C27.3786 146.201 29.54 145.313 31.836 144.3C28.6733 148.424 26.4053 152.712 25.088 156.221C24.8346 156.893 24.9626 157.649 25.42 158.201C25.8773 158.753 26.5906 159.025 27.3026 158.895C32.056 158.068 36.5693 156.889 41.5639 154.528C39.4186 157.691 37.3733 161.284 36.18 164.713C35.9573 165.352 36.0746 166.06 36.4893 166.596C36.8706 167.087 37.4546 167.371 38.0693 167.371L38.236 167.364C47.3826 166.601 57.9533 162.74 66.512 157.035C74.4573 151.737 76.88 145.764 77.5133 141.685C78.2186 137.137 77.0466 132.556 74.2973 129.119C70.5079 124.381 62.928 121.553 54.02 121.553Z" fill="#100F0D"/>
<path d="M179.383 125.364C184.169 126.949 188.009 128.871 191.103 131.084C187.063 131.484 182.704 132.977 178.823 135.883C175.516 138.364 172.556 141.857 170.476 146.603C168.729 150.496 167.583 155.229 167.276 160.924L167.196 161.137C163.529 159.616 159.849 157.697 156.383 155.377C144.156 147.216 144.343 136.257 149.049 130.364C154.383 123.697 168.276 121.697 179.383 125.364Z" fill="#CD5C29"/>
<path d="M171.489 147.044C173.822 149.044 181.049 157.71 183.716 165.377C178.809 164.962 173.022 163.549 167.196 161.137L167.276 160.924C167.582 155.229 168.729 150.496 170.476 146.602L171.489 147.044Z" fill="#FDEAB3"/>
<path d="M179.489 136.817C187.264 142.377 192.489 150.711 194.823 156.924C187.156 155.591 180.489 153.377 171.489 147.044L170.476 146.603C172.556 141.857 175.516 138.364 178.823 135.883L179.489 136.817Z" fill="#FDEAB3"/>
<path d="M191.103 131.084C197.329 135.537 200.529 141.122 202.383 147.377C196.383 144.71 188.823 142.15 179.489 136.817L178.823 135.882C182.704 132.977 187.063 131.484 191.103 131.084Z" fill="#FDEAB3"/>
<path d="M197.979 143.345C193.188 141.377 187.779 139.144 181.501 135.641C184.135 134.06 186.951 133.071 189.751 132.613C194.589 136.031 197.276 139.971 198.941 143.741C198.624 143.609 198.304 143.479 197.979 143.345ZM191.459 154.213C185.583 152.853 179.981 150.564 172.644 145.401L172.523 145.347C174.055 142.417 175.949 140.043 178.065 138.161L178.329 138.441C184.421 142.793 188.855 148.956 191.459 154.213ZM180.545 162.963C176.699 162.335 172.668 161.179 168.725 159.597C169.044 155.649 169.783 152.192 170.86 149.192C173.017 151.371 177.733 157.121 180.545 162.963ZM148.224 141.072C147.689 137.628 148.559 134.183 150.609 131.619C153.603 127.879 160.176 125.553 167.765 125.553C171.556 125.553 175.357 126.147 178.756 127.269C181.755 128.259 184.325 129.388 186.548 130.616C177.2 133.277 167.783 141.636 166.123 158.477C163.119 157.111 160.199 155.511 157.491 153.707C150.756 149.215 148.733 144.357 148.224 141.072ZM204.207 146.492C200.671 134.929 193.196 127.823 180.008 123.469C176.211 122.216 171.977 121.553 167.765 121.553C158.857 121.553 151.276 124.381 147.488 129.119C144.737 132.556 143.565 137.137 144.271 141.685C144.904 145.764 147.327 151.737 155.272 157.035C163.831 162.74 174.401 166.601 183.548 167.364L183.715 167.371H183.729C184.824 167.404 185.743 166.48 185.741 165.371C185.741 165.023 185.653 164.695 185.496 164.409C184.291 161.072 182.303 157.597 180.22 154.528C185.215 156.889 189.728 158.068 194.483 158.895C195.195 159.025 195.907 158.753 196.365 158.201C196.823 157.649 196.949 156.893 196.697 156.221C195.379 152.712 193.111 148.424 189.948 144.3C192.245 145.313 194.405 146.201 196.459 147.045C198.275 147.791 199.979 148.491 201.569 149.199C201.829 149.315 202.107 149.371 202.381 149.371H202.408C203.513 149.371 204.408 148.475 204.408 147.371C204.408 147.055 204.336 146.757 204.207 146.492Z" fill="#100F0D"/>
</g>
<defs>
<clipPath id="clip0_1_167">
<rect width="221.81" height="164.85" fill="white" transform="translate(0 23)"/>
</clipPath>
</defs>
</svg>
